<svg width="338" height="111" viewBox="0 0 338 111" fill="none" xmlns="http://www.w3.org/2000/svg">
<path d="M123.936 97.504V100H99.36V97.504L104.64 96.928C105.664 96.8 106.272 96.544 106.464 96.16C106.656 95.776 106.752 94.464 106.752 92.224V60.256C106.752 58.016 106.656 56.704 106.464 56.32C106.336 55.936 105.728 55.68 104.64 55.552L99.36 55.072V52.48H106.752V45.568C106.752 42.56 107.2 39.712 108.096 37.024C109.056 34.336 110.688 32.16 112.992 30.496C115.296 28.832 118.464 28 122.496 28C127.808 28 131.744 29.44 134.304 32.32C136.864 35.2 137.792 38.72 137.088 42.88L129.6 43.936C130.176 39.52 129.856 36.288 128.64 34.24C127.488 32.128 125.44 31.072 122.496 31.072C120.832 31.072 119.392 31.456 118.176 32.224C117.024 32.928 116.128 34.24 115.488 36.16C114.912 38.016 114.624 40.704 114.624 44.224V52.48H129.888V55.552H114.624V92.224C114.624 94.464 114.72 95.808 114.912 96.256C115.104 96.64 115.712 96.864 116.736 96.928L123.936 97.504ZM177.551 75.232V77.152C177.551 84.384 175.727 90.176 172.079 94.528C168.495 98.816 163.375 100.96 156.719 100.96C150.127 100.96 145.007 98.816 141.359 94.528C137.775 90.176 135.983 84.384 135.983 77.152V75.232C135.983 68.064 137.775 62.336 141.359 58.048C144.943 53.696 150.063 51.52 156.719 51.52C163.375 51.52 168.495 53.696 172.079 58.048C175.727 62.336 177.551 68.064 177.551 75.232ZM168.911 73.312C168.911 66.656 167.855 61.888 165.743 59.008C163.695 56.064 160.687 54.592 156.719 54.592C152.815 54.592 149.807 56.064 147.695 59.008C145.647 61.888 144.623 66.656 144.623 73.312V79.072C144.623 85.792 145.647 90.624 147.695 93.568C149.807 96.448 152.815 97.888 156.719 97.888C160.687 97.888 163.695 96.448 165.743 93.568C167.855 90.624 168.911 85.792 168.911 79.072V73.312ZM224.122 59.68L210.106 100H203.866L189.754 59.68C189.114 57.824 188.634 56.704 188.314 56.32C187.994 55.936 187.322 55.68 186.298 55.552L181.402 55.072V52.48H203.29V55.072L198.394 55.552C197.37 55.68 196.826 55.936 196.762 56.32C196.698 56.64 196.986 57.76 197.626 59.68L209.242 93.088L220.666 59.68C221.306 57.76 221.594 56.64 221.53 56.32C221.466 55.936 220.922 55.68 219.898 55.552L214.906 55.072V52.48H232.378V55.072L227.482 55.552C226.458 55.68 225.786 55.936 225.466 56.32C225.21 56.64 224.762 57.76 224.122 59.68ZM274.6 89.056C273.448 93.408 271.272 96.48 268.072 98.272C264.936 100.064 261.448 100.96 257.608 100.96C250.504 100.96 245.192 98.816 241.672 94.528C238.152 90.176 236.392 84.384 236.392 77.152V75.232C236.392 68.064 238.088 62.336 241.48 58.048C244.872 53.696 249.8 51.52 256.264 51.52C259.72 51.52 262.856 52.224 265.672 53.632C268.552 55.04 270.824 57.12 272.488 59.872C274.216 62.624 275.08 66.048 275.08 70.144C275.08 72.064 274.888 74.08 274.504 76.192H245.032V79.072C245.032 85.792 246.056 90.624 248.104 93.568C250.216 96.448 253.608 97.888 258.28 97.888C261.224 97.888 263.656 97.12 265.576 95.584C267.56 94.048 268.872 91.392 269.512 87.616L274.6 89.056ZM256.264 54.592C252.488 54.592 249.672 56.032 247.816 58.912C245.96 61.792 245.032 66.528 245.032 73.12H266.632V72.832C266.76 72 266.856 71.2 266.92 70.432C266.984 69.6 267.016 68.864 267.016 68.224C267.016 63.424 266.024 59.968 264.04 57.856C262.056 55.68 259.464 54.592 256.264 54.592ZM323.693 100.672C318.701 100.672 315.757 98.368 314.861 93.76C312.621 96.32 310.157 98.176 307.469 99.328C304.781 100.416 302.125 100.96 299.501 100.96C295.021 100.96 291.725 99.712 289.613 97.216C287.501 94.72 286.445 91.712 286.445 88.192C286.445 84.416 287.725 81.44 290.285 79.264C292.909 77.024 297.421 75.904 303.821 75.904H314.669V68.128C314.669 63.008 313.773 59.488 311.981 57.568C310.253 55.584 307.885 54.592 304.877 54.592C302.957 54.592 301.229 54.976 299.693 55.744C298.157 56.512 297.037 57.92 296.333 59.968C295.693 61.952 295.629 64.864 296.141 68.704L288.557 67.552C288.237 64.544 288.621 61.856 289.709 59.488C290.861 57.056 292.717 55.136 295.277 53.728C297.901 52.256 301.165 51.52 305.069 51.52C309.741 51.52 313.325 52.32 315.821 53.92C318.317 55.456 320.045 57.472 321.005 59.968C322.029 62.464 322.541 65.184 322.541 68.128V89.728C322.541 92.992 322.893 95.04 323.597 95.872C324.365 96.704 325.197 97.12 326.093 97.12C326.669 97.12 327.277 96.992 327.917 96.736C328.557 96.416 329.261 95.936 330.029 95.296L331.757 97.696C330.797 98.528 329.645 99.232 328.301 99.808C327.021 100.384 325.485 100.672 323.693 100.672ZM302.189 96.928C303.981 96.928 305.901 96.448 307.949 95.488C310.061 94.464 312.301 92.448 314.669 89.44V78.976H304.877C301.293 78.976 298.669 79.712 297.005 81.184C295.405 82.592 294.605 84.8 294.605 87.808C294.605 90.688 295.213 92.928 296.429 94.528C297.709 96.128 299.629 96.928 302.189 96.928Z" fill="black"/>
<path d="M0.0287723 100.33C0.0287723 131.069 84.3102 0 40.8848 0C-2.54074 0 0.0287723 131.069 0.0287723 100.33C0.0287723 69.5912 35.2321 44.6725 78.6576 44.6725C122.083 44.6725 0.0287723 69.5912 0.0287723 100.33Z" fill="#3B82F6"/>
</svg>
